<?xml version="1.0" encoding="UTF-8" ?>
<svg id="layer2" xmlns="http://www.w3.org/2000/svg" version="1.1" viewBox="0 0 292.79 287.73">
  <defs>
    <style>
      .st0 {
        fill: #00c483;
      }
    </style>
  </defs>
  <path
    class="st0"
    d="M280.84,141.33h0c-10.82-11.82-14.62-28.46-10-43.8h0c9.17-30.41-14.91-60.61-46.6-58.44h0c-15.99,1.1-31.37-6.31-40.48-19.49h0c-18.06-26.13-56.68-26.13-74.74,0h0c-9.11,13.18-24.49,20.59-40.48,19.49h0c-31.69-2.17-55.77,28.02-46.6,58.44h0c4.62,15.34.83,31.98-10,43.8h0c-21.46,23.42-12.86,61.07,16.63,72.87h0c14.88,5.95,25.52,19.3,28.01,35.12h0c4.94,31.38,39.73,48.14,67.34,32.43h0c13.93-7.92,31-7.92,44.93,0h0c27.61,15.71,62.41-1.05,67.34-32.43h0c2.49-15.83,13.13-29.18,28.01-35.12h0c29.5-11.79,38.09-49.45,16.63-72.87ZM186.6,227.8l-30.27-4.48,8.67-58.56-63.38,48.81-18.65-24.37,55.61-42.79-55.61-42.83,18.65-24.33,63.38,48.77-8.67-58.56,30.27-4.48,12.03,81.43-12.03,81.39Z"
  />
</svg>
